<svg id="Group_50_Copy_2" data-name="Group 50 Copy 2" xmlns="http://www.w3.org/2000/svg" xmlns:xlink="http://www.w3.org/1999/xlink" width="182" height="42.167" viewBox="0 0 182 42.167">
  <defs>
    <clipPath id="clip-path">
      <path id="Clip_6" data-name="Clip 6" d="M0,0H7.568V7.568H0Z" fill="none"/>
    </clipPath>
    <clipPath id="clip-path-2">
      <path id="Clip_45" data-name="Clip 45" d="M0,0H6.848V10.812H0Z" fill="none"/>
    </clipPath>
    <clipPath id="clip-path-3">
      <path id="Clip_48" data-name="Clip 48" d="M0,0H16.578V28.471H0Z" fill="none"/>
    </clipPath>
  </defs>
  <path id="Fill_1" data-name="Fill 1" d="M6.949,4.665q0,1.751.044,2.172a1.055,1.055,0,0,0,.111.388.38.38,0,0,0,.29.166,2.734,2.734,0,0,0,.445.033q.089,0,.089.066t-.167.078q-.245,0-.54-.011t-.5-.011l-.2-.011-.2.005-.423.017q-.24.011-.373.011-.156,0-.156-.078c0-.044.026-.066.078-.066a1.247,1.247,0,0,0,.3-.033q.223-.044.3-.554Q6.1,6.416,6.1,4.665V3.612a.049.049,0,0,0-.056-.055H1.782c-.045,0-.067.018-.067.055V4.665q0,1.751.056,2.172.033.5.39.554a2.947,2.947,0,0,0,.457.033c.052,0,.078.022.078.066s-.056.078-.167.078q-.245,0-.535-.011L1.5,7.541l-.212-.005-.2.005q-.184.006-.417.017t-.368.011c-.111,0-.167-.026-.167-.078s.03-.066.089-.066a1.247,1.247,0,0,0,.3-.033q.212-.044.29-.554.044-.421.044-2.172V2.9Q.869,1.064.858.742A.868.868,0,0,0,.752.349.475.475,0,0,0,.423.177,1.474,1.474,0,0,0,.078.144C.026.144,0,.122,0,.078S.052,0,.156,0q.2,0,.473.011t.462.022l.2.011.2-.011L1.915.011Q2.15,0,2.283,0c.1,0,.156.026.156.078s-.026.066-.078.066A1.6,1.6,0,0,0,2.1.177a.367.367,0,0,0-.267.161.952.952,0,0,0-.1.4q-.022.321-.022,2.161v.211a.059.059,0,0,0,.067.066H6.047q.056,0,.056-.066V2.9Q6.1,1.064,6.08.742A.868.868,0,0,0,5.974.349.475.475,0,0,0,5.646.177,1.252,1.252,0,0,0,5.312.144c-.059,0-.089-.022-.089-.066S5.278,0,5.39,0q.2,0,.473.011t.462.022l.2.011L6.72.033,7.138.011Q7.372,0,7.505,0c.111,0,.167.026.167.078s-.026.066-.078.066a1.6,1.6,0,0,0-.256.033q-.357.056-.368.565-.022.321-.022,2.161Z" transform="translate(46.491 34.238)" fill="#f39200"/>
  <path id="Fill_3" data-name="Fill 3" d="M3.909,7.929a4.263,4.263,0,0,1-1.458-.241A3.443,3.443,0,0,1,1.34,7.055a3.735,3.735,0,0,1-.754-.913A4.092,4.092,0,0,1,.14,5.068,4.589,4.589,0,0,1,0,3.954,4.108,4.108,0,0,1,.14,2.918,4.02,4.02,0,0,1,.6,1.859a4.121,4.121,0,0,1,.77-.935A3.556,3.556,0,0,1,2.5.257,4.159,4.159,0,0,1,3.975,0a4.033,4.033,0,0,1,2.842,1.03A3.6,3.6,0,0,1,7.929,3.8,4.161,4.161,0,0,1,6.812,6.73,3.8,3.8,0,0,1,3.909,7.929ZM3.9.347A2.821,2.821,0,0,0,1.764,1.2,3.458,3.458,0,0,0,.95,3.673,4.166,4.166,0,0,0,1.87,6.478a2.931,2.931,0,0,0,2.307,1.07,2.98,2.98,0,0,0,.642-.073,2.692,2.692,0,0,0,.732-.3,2.557,2.557,0,0,0,.7-.594,3.017,3.017,0,0,0,.509-1.013,4.938,4.938,0,0,0,.206-1.49,3.953,3.953,0,0,0-.9-2.732A2.835,2.835,0,0,0,3.9.347Z" transform="translate(61.267 34.238)" fill="#f39200"/>
  <g id="Group_7" data-name="Group 7" transform="translate(76.044 34.238)">
    <path id="Clip_6-2" data-name="Clip 6" d="M0,0H7.568V7.568H0Z" fill="none"/>
    <g id="Group_7-2" data-name="Group 7" clip-path="url(#clip-path)">
      <path id="Fill_5" data-name="Fill 5" d="M.882,2.849q0-1.8-.023-2.12A.838.838,0,0,0,.754.342.477.477,0,0,0,.424.174,1.284,1.284,0,0,0,.089.141Q0,.141,0,.076T.168,0q.2,0,.469.011t.469.016l.223.005L1.747.016Q2.143,0,2.322,0T2.49.076c0,.044-.03.065-.089.065a1.934,1.934,0,0,0-.246.033.344.344,0,0,0-.279.152.959.959,0,0,0-.1.4q-.011.315-.011,2.12V4.23a3.243,3.243,0,0,0,.748,2.425,1.977,1.977,0,0,0,.7.424,2.761,2.761,0,0,0,.826.109A2.131,2.131,0,0,0,4.923,7a1.973,1.973,0,0,0,.7-.516,3.836,3.836,0,0,0,.581-2.4V2.849q0-1.8-.023-2.12A.838.838,0,0,0,6.078.342.513.513,0,0,0,5.749.163,2.464,2.464,0,0,0,5.414.141q-.089,0-.089-.065T5.492,0q.2,0,.452.011l.424.016.2.005L6.9.022Q7.222,0,7.4,0t.167.076c0,.044-.026.065-.078.065a1.484,1.484,0,0,0-.256.022q-.358.076-.368.566-.023.315-.023,2.12V3.9A3.769,3.769,0,0,1,5.916,6.84a3.05,3.05,0,0,1-2.076.729,2.927,2.927,0,0,1-2.076-.707A3.335,3.335,0,0,1,.882,4.285Z" fill="#f39200"/>
    </g>
  </g>
  <path id="Fill_8" data-name="Fill 8" d="M.148,7.66a.214.214,0,0,1-.126-.106A1,1,0,0,1,0,7.279Q0,6.831.046,6.2c.007-.1.034-.157.08-.157s.08.038.08.112a2.412,2.412,0,0,0,.023.37,1.141,1.141,0,0,0,.537.778,1.906,1.906,0,0,0,.994.252,1.436,1.436,0,0,0,1.085-.4,1.313,1.313,0,0,0,.388-.941,1.589,1.589,0,0,0-.251-.9,4.568,4.568,0,0,0-.937-.929l-.457-.37A4.344,4.344,0,0,1,.526,2.889,2.123,2.123,0,0,1,.24,1.826,1.669,1.669,0,0,1,.817.5,2.287,2.287,0,0,1,2.376,0a4.453,4.453,0,0,1,.96.1A1.673,1.673,0,0,0,3.7.134c.068,0,.1.026.1.078q0,.011-.011.14T3.77.739Q3.759,1,3.759,1.3q0,.235-.069.235c-.038,0-.065-.045-.08-.134A1.268,1.268,0,0,0,3.473.9.658.658,0,0,0,3.33.7,1.352,1.352,0,0,0,2.919.482,2.013,2.013,0,0,0,2.182.359a1.317,1.317,0,0,0-.908.319,1.088,1.088,0,0,0-.36.857,1.22,1.22,0,0,0,.257.761,6.324,6.324,0,0,0,1,.929l.286.224a4.682,4.682,0,0,1,1.194,1.2,2.28,2.28,0,0,1,.314,1.181,2.245,2.245,0,0,1-.2.873,1.912,1.912,0,0,1-.668.806,2.717,2.717,0,0,1-1.565.414A3.182,3.182,0,0,1,.148,7.66" transform="translate(91.18 34.238)" fill="#f39200"/>
  <path id="Fill_10" data-name="Fill 10" d="M1.562,4.661q0,1.754.055,2.175.055.51.382.544a3.06,3.06,0,0,0,.448.044c.051,0,.076.019.076.056q0,.089-.153.089-.24,0-.53-.006t-.486-.017l-.2-.011-.2.011q-.186.011-.415.017t-.36.006c-.1,0-.153-.03-.153-.089,0-.037.025-.056.077-.056A1.231,1.231,0,0,0,.4,7.38q.207-.033.284-.544.054-.422.054-2.175V2.9Q.743,1.055.721.733.688.244.382.167A1.1,1.1,0,0,0,.076.133Q0,.133,0,.067C0,.022.051,0,.153,0H2.119c.1,0,.153.022.153.067S2.246.133,2.2.133a1.221,1.221,0,0,0-.24.022.4.4,0,0,0-.273.172.969.969,0,0,0-.1.405q-.022.322-.022,2.164Z" transform="translate(101.992 34.238)" fill="#f39200"/>
  <path id="Fill_12" data-name="Fill 12" d="M1.365,6.176a2.925,2.925,0,0,0,.1.837.426.426,0,0,0,.3.3,1.81,1.81,0,0,0,.491.054c.051,0,.076.022.076.065s-.058.065-.175.065h-2c-.1,0-.153-.022-.153-.065s.025-.065.076-.065a1.183,1.183,0,0,0,.4-.054.338.338,0,0,0,.24-.3,5.347,5.347,0,0,0,.055-.945L.786.486Q.786,0,.9,0q.065,0,.349.313Q1.43.518,4.379,3.649L6.749,6.2,6.64,1.242A2.337,2.337,0,0,0,6.558.567a.417.417,0,0,0-.3-.254A2.913,2.913,0,0,0,5.766.27C5.715.27,5.69.249,5.69.205s.065-.076.2-.076q.262,0,.639.016l.388.016L7.224.146Q7.513.13,7.754.13c.116,0,.175.025.175.076S7.892.27,7.819.27A.8.8,0,0,0,7.59.3a.362.362,0,0,0-.306.221,2.128,2.128,0,0,0-.065.643L7.2,6.877q0,.248-.005.383c0,.09-.009.159-.017.205a.275.275,0,0,1-.022.086.049.049,0,0,1-.044.016,3.249,3.249,0,0,1-.721-.616l-.475-.464q-.4-.389-1.021-1.031T3.811,4.308l-2.567-2.8Z" transform="translate(113.164 34.238)" fill="#f39200"/>
  <path id="Fill_14" data-name="Fill 14" d="M5.983,5.211A2.4,2.4,0,0,0,5.9,4.423a.531.531,0,0,0-.382-.252,1.324,1.324,0,0,0-.348-.033c-.053,0-.079-.023-.079-.067s.056-.078.169-.078q.2,0,.472.006t.467.017l.208.011.2-.011Q6.793,4,7.029,4T7.4,3.992c.112,0,.169.026.169.078s-.03.067-.09.067a1.626,1.626,0,0,0-.247.033.381.381,0,0,0-.281.162.956.956,0,0,0-.1.408q-.011.324-.011,1.051V6.922a2.124,2.124,0,0,1-.023.414A.238.238,0,0,1,6.7,7.47a4.576,4.576,0,0,1-2.159.458A4.966,4.966,0,0,1,1.2,6.844,3.419,3.419,0,0,1,.349,5.631,4.041,4.041,0,0,1,0,3.959a4.026,4.026,0,0,1,.478-2A3.613,3.613,0,0,1,1.7.638,5.086,5.086,0,0,1,4.4,0,6.792,6.792,0,0,1,5.949.179a5.485,5.485,0,0,0,.821.1c.082.008.124.038.124.09,0,.022-.006.086-.017.19s-.022.263-.034.475-.017.468-.017.766q0,.213-.09.213-.056,0-.078-.145A1.515,1.515,0,0,0,6.444,1.2,1.742,1.742,0,0,0,5.6.626,4.248,4.248,0,0,0,4.06.38a3.389,3.389,0,0,0-2.17.66,2.523,2.523,0,0,0-.737,1.04A4,4,0,0,0,.877,3.612,3.913,3.913,0,0,0,1.226,5.3a3.759,3.759,0,0,0,.731,1.113A3.659,3.659,0,0,0,4.622,7.493,2.5,2.5,0,0,0,5.78,7.28a.394.394,0,0,0,.2-.358Z" transform="translate(127.58 34.238)" fill="#f39200"/>
  <path id="Fill_16" data-name="Fill 16" d="M10.463,10.812H9.451a3.417,3.417,0,0,1-1.52-.269,2.959,2.959,0,0,1-.626-.5,6.639,6.639,0,0,1-.554-.617c-.139-.181-.377-.494-.751-.989L4.432,6.316a.241.241,0,0,0-.175-.079L2.485,6.206c-.063,0-.095.037-.095.111v.348c0,1.662.027,2.706.079,3.1.031.473.218.739.553.792.414.032.628.048.65.048.073,0,.111.032.111.095s-.08.111-.238.111c-.226,0-.475-.005-.76-.015s-.505-.019-.7-.024l-.3-.008-.094.016H1.425c-.106,0-.217,0-.332.008L.744,10.8c-.1,0-.2.007-.3.007-.147,0-.221-.037-.221-.111s.037-.095.112-.095c.03,0,.165-.015.427-.048.221-.053.359-.319.412-.792.053-.4.079-1.447.079-3.1V4.147c0-1.743-.011-2.782-.032-3.087A1.242,1.242,0,0,0,1.068.5.727.727,0,0,0,.6.238,3.266,3.266,0,0,0,.126.206C.042.206,0,.174,0,.111S.08,0,.238,0C.426,0,.65.005.9.016c.236.009.457.02.657.031l.076,0,.217.011c.033,0,.3-.011.736-.032C3.058.01,3.366,0,3.53,0A4.494,4.494,0,0,1,6.158.633a2.681,2.681,0,0,1,.665.769A2.217,2.217,0,0,1,7.14,2.58,4.579,4.579,0,0,1,5.414,5.873C6.9,7.791,7.9,9.021,8.39,9.53a3.143,3.143,0,0,0,1.741,1.044,4.649,4.649,0,0,0,.554.032c.084,0,.126.032.126.095S10.695,10.812,10.463,10.812ZM3.467.38A4.726,4.726,0,0,0,2.5.459.194.194,0,0,0,2.39.633V5.319a.164.164,0,0,0,.095.158,3.141,3.141,0,0,0,1.5.238,1.9,1.9,0,0,0,1.076-.269,2.5,2.5,0,0,0,.871-2.2,3.133,3.133,0,0,0-.657-2.106A2.28,2.28,0,0,0,3.467.38Z" transform="translate(18.741 16.578)" fill="#29235c"/>
  <path id="Fill_18" data-name="Fill 18" d="M8.547,7.343a3.338,3.338,0,0,0-.112-1.111.759.759,0,0,0-.546-.355,1.908,1.908,0,0,0-.5-.047q-.113,0-.112-.095,0-.11.241-.11.289,0,.675.008t.667.023l.3.016.281-.016q.265-.015.6-.023t.53-.008q.241,0,.241.11,0,.095-.129.095a2.337,2.337,0,0,0-.353.047.545.545,0,0,0-.4.228,1.336,1.336,0,0,0-.144.575q-.016.457-.016,1.481V9.754a3,3,0,0,1-.032.583.34.34,0,0,1-.161.189,6.616,6.616,0,0,1-3.085.646A7.16,7.16,0,0,1,1.719,9.644,4.811,4.811,0,0,1,.5,7.934,5.621,5.621,0,0,1,0,5.578,5.608,5.608,0,0,1,.683,2.766,5.118,5.118,0,0,1,2.426.9,7.347,7.347,0,0,1,6.282,0,9.845,9.845,0,0,1,8.5.252,7.947,7.947,0,0,0,9.671.394q.177.016.177.126,0,.047-.024.268t-.048.67q-.024.449-.024,1.079,0,.3-.129.3-.08,0-.112-.2a2.11,2.11,0,0,0-.305-.945A2.489,2.489,0,0,0,8,.882,6.145,6.145,0,0,0,5.8.536a4.887,4.887,0,0,0-3.1.93A3.554,3.554,0,0,0,1.647,2.931,5.569,5.569,0,0,0,1.253,5.09a5.46,5.46,0,0,0,.5,2.372A5.305,5.305,0,0,0,2.8,9.029,5.265,5.265,0,0,0,6.6,10.558a3.613,3.613,0,0,0,1.655-.3.554.554,0,0,0,.289-.5Z" transform="translate(28.471 16.218)" fill="#29235c"/>
  <path id="Fill_20" data-name="Fill 20" d="M5.507,11.173a6.016,6.016,0,0,1-2.053-.339,4.882,4.882,0,0,1-1.566-.892A5.246,5.246,0,0,1,.826,8.655,5.705,5.705,0,0,1,.2,7.141,6.43,6.43,0,0,1,0,5.57,5.75,5.75,0,0,1,.2,4.111,5.639,5.639,0,0,1,.842,2.62,5.834,5.834,0,0,1,1.928,1.3,5.008,5.008,0,0,1,3.517.363,5.847,5.847,0,0,1,5.6,0,5.685,5.685,0,0,1,9.607,1.452a5.082,5.082,0,0,1,1.566,3.9A5.865,5.865,0,0,1,9.6,9.484,5.359,5.359,0,0,1,5.507,11.173ZM5.492.49A3.977,3.977,0,0,0,2.486,1.7,4.879,4.879,0,0,0,1.337,5.176a5.867,5.867,0,0,0,1.3,3.953,4.128,4.128,0,0,0,3.249,1.507,4.221,4.221,0,0,0,.905-.1,3.786,3.786,0,0,0,1.031-.427,3.606,3.606,0,0,0,.991-.836,4.28,4.28,0,0,0,.716-1.428,6.975,6.975,0,0,0,.291-2.1,5.562,5.562,0,0,0-1.267-3.85A3.991,3.991,0,0,0,5.492.49Z" transform="translate(41.446 16.218)" fill="#29235c"/>
  <path id="Fill_22" data-name="Fill 22" d="M9.137,11.9q0,4.343.111,5.387a2.828,2.828,0,0,0,.264.962.9.9,0,0,0,.708.412,7.994,7.994,0,0,0,1.139.11c.129,0,.195.046.195.137q0,.193-.389.192H5.61c-.26,0-.389-.064-.389-.192q0-.137.194-.137a3.208,3.208,0,0,0,.75-.11q.583-.137.722-1.374.139-1.044.139-5.387V1.4L3.3,1.457a7.094,7.094,0,0,0-1.736.192,1.419,1.419,0,0,0-.819.6,4.072,4.072,0,0,0-.417.77q-.111.247-.25.247C.028,3.271,0,3.2,0,3.051A13.07,13.07,0,0,1,.222,1.759Q.444.632.5.44.666,0,.75,0a3.675,3.675,0,0,1,.361.11,3.013,3.013,0,0,0,.75.137q.333.028,1.069.11t.9.082h9.415q.305,0,1.777-.192a3.111,3.111,0,0,1,.694-.082c.093,0,.139.092.139.275q0,.44-.042,1.553t-.042,1.2q0,.33-.166.33-.195,0-.222-.412V2.831q-.195-1.319-3.111-1.374L9.137,1.4Z" transform="translate(59.465 8.289)" fill="#29235c"/>
  <path id="Fill_24" data-name="Fill 24" d="M10.464,10.812H9.451a3.417,3.417,0,0,1-1.52-.269,2.959,2.959,0,0,1-.626-.5,6.4,6.4,0,0,1-.553-.617c-.141-.182-.378-.495-.752-.989L4.432,6.316a.241.241,0,0,0-.175-.079L2.485,6.206c-.063,0-.095.037-.095.111v.348c0,1.662.027,2.706.079,3.1.031.473.218.739.553.792.4.031.628.048.649.048.074,0,.112.032.112.095s-.08.111-.238.111c-.225,0-.474-.005-.76-.015s-.506-.019-.7-.024l-.3-.008-.094.016H1.425c-.1,0-.216,0-.332.008L.918,10.8.743,10.8c-.1,0-.2.007-.3.007-.147,0-.221-.037-.221-.111s.037-.095.111-.095c.03,0,.166-.015.427-.048.221-.053.359-.319.411-.792.053-.4.079-1.44.079-3.1V4.147c0-1.776-.01-2.786-.031-3.087A1.238,1.238,0,0,0,1.068.5.727.727,0,0,0,.6.238,3.266,3.266,0,0,0,.126.206C.042.206,0,.174,0,.111S.08,0,.238,0C.427,0,.65.005.9.016c.236.009.457.02.657.031l.088,0,.2.011c.032,0,.275-.01.736-.032S3.366,0,3.53,0A4.494,4.494,0,0,1,6.158.633a2.681,2.681,0,0,1,.665.769A2.217,2.217,0,0,1,7.14,2.58,4.577,4.577,0,0,1,5.413,5.873C6.9,7.792,7.9,9.023,8.39,9.53a3.143,3.143,0,0,0,1.741,1.044,4.649,4.649,0,0,0,.554.032c.084,0,.126.032.126.095S10.695,10.812,10.464,10.812ZM3.467.38A4.726,4.726,0,0,0,2.5.459.194.194,0,0,0,2.39.633V5.319a.164.164,0,0,0,.095.158,3.138,3.138,0,0,0,1.5.238,1.9,1.9,0,0,0,1.076-.269,2.5,2.5,0,0,0,.871-2.2,3.133,3.133,0,0,0-.657-2.106A2.28,2.28,0,0,0,3.467.38Z" transform="translate(74.602 16.578)" fill="#29235c"/>
  <path id="Fill_26" data-name="Fill 26" d="M10.529,11.173c-1.762,0-2.656-.059-2.656-.176,0-.011.046-.053.141-.128s.11-.19.048-.353L6.742,6.962a.142.142,0,0,0-.126-.1H3.551c-.052,0-.1.038-.141.112L2.561,9.54a3.027,3.027,0,0,0-.189.976.35.35,0,0,0,.166.3.644.644,0,0,0,.369.113h.141c.094,0,.141.027.141.08,0,.108-.072.16-.22.16-.125,0-.332-.008-.613-.024s-.445-.024-.487-.024l-.613.024c-.4.016-.73.024-.99.024-.177,0-.267-.054-.267-.16,0-.053.042-.08.125-.08a1.44,1.44,0,0,0,1-.3,2.788,2.788,0,0,0,.606-1.1L4.95.561C5.085.189,5.191,0,5.264,0s.177.173.315.528l3.3,8.708a4.107,4.107,0,0,0,.738,1.3,1.4,1.4,0,0,0,1.053.392c.094,0,.141.027.141.08C10.812,11.119,10.717,11.173,10.529,11.173Zm-5.5-8.98c-.037,0-.073.047-.11.144L3.677,6.242c-.019.045-.023.077-.011.1a.048.048,0,0,0,.043.017H6.427a.054.054,0,0,0,.046-.018.112.112,0,0,0,0-.094L5.139,2.337C5.1,2.24,5.066,2.193,5.029,2.193Z" transform="translate(87.937 16.218)" fill="#29235c"/>
  <path id="Fill_28" data-name="Fill 28" d="M1.986,9.116a4.38,4.38,0,0,0,.143,1.235.625.625,0,0,0,.429.438,2.592,2.592,0,0,0,.715.08q.111,0,.111.1t-.254.1H.223c-.149,0-.223-.032-.223-.1s.037-.1.111-.1A1.694,1.694,0,0,0,.7,10.79a.5.5,0,0,0,.349-.438,7.982,7.982,0,0,0,.08-1.394L1.144.717Q1.144,0,1.3,0q.1,0,.508.462.27.3,4.559,4.925L9.817,9.148,9.658,1.833a3.49,3.49,0,0,0-.119-1A.608.608,0,0,0,9.1.462,4.187,4.187,0,0,0,8.387.4C8.313.4,8.276.366,8.276.3s.1-.112.286-.112q.381,0,.929.024l.564.024q.032,0,.453-.024t.771-.024q.254,0,.254.112c0,.064-.053.1-.159.1a1.153,1.153,0,0,0-.333.048A.526.526,0,0,0,10.6.773a3.179,3.179,0,0,0-.1.948l-.032,8.431q0,.367-.008.566a2.91,2.91,0,0,1-.024.3.426.426,0,0,1-.031.128.073.073,0,0,1-.064.024,4.741,4.741,0,0,1-1.048-.908L8.6,9.578Q8.022,9,7.117,8.056t-1.573-1.7L1.811,2.231Z" transform="translate(100.55 16.218)" fill="#29235c"/>
  <path id="Fill_30" data-name="Fill 30" d="M.2,10.793a.294.294,0,0,1-.171-.15A1.449,1.449,0,0,1,0,10.257q0-.631.062-1.515.015-.221.109-.221c.073,0,.109.053.109.158A3.562,3.562,0,0,0,.311,9.2a1.608,1.608,0,0,0,.732,1.1,2.532,2.532,0,0,0,1.355.355,1.925,1.925,0,0,0,1.48-.568,1.883,1.883,0,0,0,.529-1.326A2.3,2.3,0,0,0,4.066,7.5a6.349,6.349,0,0,0-1.277-1.31l-.623-.521A6.054,6.054,0,0,1,.716,4.071a3.071,3.071,0,0,1-.389-1.5A2.389,2.389,0,0,1,1.114.71,3.054,3.054,0,0,1,3.24,0,5.881,5.881,0,0,1,4.549.142a2.219,2.219,0,0,0,.5.047c.094,0,.14.037.14.111,0,.011-.005.076-.016.2s-.021.3-.031.544-.016.505-.016.789c0,.221-.031.331-.093.331s-.088-.063-.109-.189a1.831,1.831,0,0,0-.187-.71A.926.926,0,0,0,4.541.986,1.828,1.828,0,0,0,3.98.678a2.671,2.671,0,0,0-1-.174,1.763,1.763,0,0,0-1.238.45,1.557,1.557,0,0,0-.491,1.207A1.757,1.757,0,0,0,1.6,3.235,8.766,8.766,0,0,0,2.96,4.545l.389.316a6.513,6.513,0,0,1,1.628,1.7,3.3,3.3,0,0,1,.428,1.665,3.258,3.258,0,0,1-.273,1.231,2.673,2.673,0,0,1-.912,1.136,3.614,3.614,0,0,1-2.134.584A4.216,4.216,0,0,1,.2,10.793" transform="translate(113.525 16.218)" fill="#29235c"/>
  <path id="Fill_32" data-name="Fill 32" d="M2.231,6.658q0,2.505.078,3.107.078.729.546.777a4.406,4.406,0,0,0,.64.063c.073,0,.109.026.109.079q0,.127-.218.127-.343,0-.757-.008t-.694-.024l-.281-.016-.281.016C1.2,10.791,1,10.8.78,10.8s-.39.008-.515.008q-.219,0-.218-.127c0-.053.036-.079.109-.079a1.768,1.768,0,0,0,.421-.063q.3-.048.406-.777.078-.6.078-3.107V4.138q0-2.631-.031-3.091Q.983.349.546.238A1.573,1.573,0,0,0,.109.19Q0,.19,0,.1T.218,0H3.027c.145,0,.219.032.219.1s-.037.1-.109.1a1.72,1.72,0,0,0-.343.032A.572.572,0,0,0,2.4.468a1.385,1.385,0,0,0-.141.579q-.031.46-.031,3.091Z" transform="translate(120.012 16.578)" fill="#29235c"/>
  <path id="Fill_34" data-name="Fill 34" d="M5.191,6.961q0,2.54.063,3.151a1.692,1.692,0,0,0,.15.563.511.511,0,0,0,.4.241,4.407,4.407,0,0,0,.647.064c.073,0,.11.027.11.08q0,.113-.221.112H3.187q-.221,0-.221-.112,0-.08.11-.08a1.771,1.771,0,0,0,.426-.064q.332-.08.41-.8.079-.61.079-3.151V.82L1.878.852A3.924,3.924,0,0,0,.892.965a.806.806,0,0,0-.465.354,2.4,2.4,0,0,0-.237.45q-.063.145-.142.145C.016,1.913,0,1.87,0,1.784q0-.1.126-.756T.284.257Q.379,0,.426,0A2.071,2.071,0,0,1,.631.064a1.658,1.658,0,0,0,.426.08q.189.017.608.064t.513.048H7.526q.174,0,1.01-.112A1.724,1.724,0,0,1,8.931.1c.053,0,.079.054.079.161q0,.258-.024.908t-.024.7q0,.193-.095.193-.111,0-.126-.241V1.656Q8.631.884,6.974.852L5.191.82Z" transform="translate(124.697 16.218)" fill="#29235c"/>
  <path id="Fill_36" data-name="Fill 36" d="M2.231,6.658q0,2.505.078,3.107.078.729.546.777a4.406,4.406,0,0,0,.64.063c.073,0,.109.026.109.079q0,.127-.218.127-.344,0-.757-.008t-.694-.024l-.281-.016-.281.016C1.2,10.791,1,10.8.78,10.8s-.39.008-.515.008q-.219,0-.218-.127c0-.053.036-.079.109-.079a1.768,1.768,0,0,0,.421-.063q.3-.048.406-.777.078-.6.078-3.107V4.138q0-2.631-.031-3.091Q.983.349.546.238A1.573,1.573,0,0,0,.109.19Q0,.19,0,.1T.218,0H3.027c.145,0,.219.032.219.1s-.037.1-.109.1a1.72,1.72,0,0,0-.343.032A.572.572,0,0,0,2.4.468a1.385,1.385,0,0,0-.141.579q-.031.46-.031,3.091Z" transform="translate(134.788 16.578)" fill="#29235c"/>
  <path id="Fill_38" data-name="Fill 38" d="M5.508,11.173a6.018,6.018,0,0,1-2.054-.339,4.882,4.882,0,0,1-1.566-.892A5.246,5.246,0,0,1,.826,8.655,5.705,5.705,0,0,1,.2,7.141,6.43,6.43,0,0,1,0,5.57,5.75,5.75,0,0,1,.2,4.111,5.664,5.664,0,0,1,.842,2.62,5.862,5.862,0,0,1,1.928,1.3,5.008,5.008,0,0,1,3.517.363,5.847,5.847,0,0,1,5.6,0,5.685,5.685,0,0,1,9.607,1.452a5.082,5.082,0,0,1,1.566,3.9A5.865,5.865,0,0,1,9.6,9.484,5.361,5.361,0,0,1,5.508,11.173ZM5.492.49A3.974,3.974,0,0,0,2.487,1.7,4.873,4.873,0,0,0,1.337,5.176a5.867,5.867,0,0,0,1.3,3.953,4.128,4.128,0,0,0,3.249,1.507,4.192,4.192,0,0,0,.9-.1,3.781,3.781,0,0,0,1.031-.427,3.606,3.606,0,0,0,.991-.836,4.28,4.28,0,0,0,.716-1.428,6.975,6.975,0,0,0,.291-2.1,5.565,5.565,0,0,0-1.266-3.85A4,4,0,0,0,5.492.49Z" transform="translate(139.113 16.218)" fill="#29235c"/>
  <path id="Fill_40" data-name="Fill 40" d="M1.986,9.116a4.38,4.38,0,0,0,.143,1.235.625.625,0,0,0,.429.438,2.592,2.592,0,0,0,.715.08q.111,0,.111.1t-.254.1H.223c-.149,0-.223-.032-.223-.1s.037-.1.111-.1A1.694,1.694,0,0,0,.7,10.79a.5.5,0,0,0,.349-.438,7.982,7.982,0,0,0,.08-1.394L1.144.717Q1.144,0,1.3,0q.1,0,.508.462.27.3,4.559,4.925L9.817,9.148,9.658,1.833a3.49,3.49,0,0,0-.119-1A.608.608,0,0,0,9.1.462,4.187,4.187,0,0,0,8.387.4C8.313.4,8.276.366,8.276.3s.1-.112.286-.112q.381,0,.929.024l.564.024q.032,0,.453-.024t.771-.024q.254,0,.254.112c0,.064-.053.1-.159.1a1.153,1.153,0,0,0-.333.048A.526.526,0,0,0,10.6.773a3.179,3.179,0,0,0-.1.948l-.032,8.431q0,.367-.008.566a2.91,2.91,0,0,1-.024.3.426.426,0,0,1-.031.128.073.073,0,0,1-.064.024,4.741,4.741,0,0,1-1.048-.908L8.6,9.578Q8.022,9,7.117,8.056t-1.573-1.7L1.811,2.231Z" transform="translate(151.006 16.218)" fill="#29235c"/>
  <path id="Fill_42" data-name="Fill 42" d="M10.529,11.173c-1.762,0-2.656-.059-2.656-.176,0-.01.044-.05.141-.128s.11-.19.048-.353L6.742,6.962a.142.142,0,0,0-.126-.1H3.551c-.052,0-.1.038-.141.112L2.561,9.54a3.022,3.022,0,0,0-.188.976.349.349,0,0,0,.165.3.644.644,0,0,0,.369.113h.141c.094,0,.141.027.141.08,0,.108-.072.16-.22.16-.126,0-.327-.008-.613-.024s-.445-.024-.487-.024l-.613.024c-.4.016-.73.024-.991.024-.177,0-.266-.054-.266-.16,0-.053.042-.08.125-.08a1.443,1.443,0,0,0,1-.3,2.776,2.776,0,0,0,.6-1.1L4.95.561C5.085.189,5.191,0,5.264,0s.179.178.315.528l3.3,8.708a4.125,4.125,0,0,0,.739,1.3,1.4,1.4,0,0,0,1.053.392c.094,0,.141.027.141.08C10.812,11.12,10.719,11.173,10.529,11.173Zm-5.5-8.98c-.037,0-.073.047-.11.144L3.677,6.242c-.019.045-.023.077-.011.1a.048.048,0,0,0,.043.017H6.428a.053.053,0,0,0,.045-.018.113.113,0,0,0,0-.094L5.139,2.337C5.1,2.24,5.066,2.193,5.029,2.193Z" transform="translate(162.899 16.218)" fill="#29235c"/>
  <g id="Group_46" data-name="Group 46" transform="translate(175.152 16.578)">
    <path id="Clip_45-2" data-name="Clip 45" d="M0,0H6.848V10.812H0Z" fill="none"/>
    <g id="Group_46-2" data-name="Group 46" clip-path="url(#clip-path-2)">
      <path id="Fill_44" data-name="Fill 44" d="M2.474,6.667q0,1.671.064,2.38a1.486,1.486,0,0,0,.255.883,2.793,2.793,0,0,0,1.724.331q.479,0,.742-.016a1.982,1.982,0,0,0,.551-.118,1.016,1.016,0,0,0,.447-.291,1.958,1.958,0,0,0,.383-.867c.021-.115.064-.173.128-.173s.08.069.08.2a5.381,5.381,0,0,1-.207,1.418.522.522,0,0,1-.215.323,1.975,1.975,0,0,1-.694.071q-1.2,0-2.4-.047t-1.46-.047H1.66q-.208.016-.383.016-.574.032-.83.032-.224,0-.223-.111c0-.063.037-.094.112-.094a1.8,1.8,0,0,0,.431-.047q.335-.079.415-.788.08-.6.08-3.089V4.129q0-2.616-.032-3.073A1.224,1.224,0,0,0,1.077.5.679.679,0,0,0,.607.252,1.924,1.924,0,0,0,.128.205C.043.205,0,.173,0,.11S.08,0,.239,0Q.527,0,.91.016t.663.023l.3.008L2.187.039q.3-.008.67-.023T3.416,0q.239,0,.239.11c0,.063-.038.095-.112.095a2.84,2.84,0,0,0-.479.047q-.543.079-.559.8-.032.457-.032,3.073Z" fill="#29235c"/>
    </g>
  </g>
  <g id="Group_49" data-name="Group 49">
    <path id="Clip_48-2" data-name="Clip 48" d="M0,0H16.578V28.471H0Z" fill="none"/>
    <g id="Group_49-2" data-name="Group 49" clip-path="url(#clip-path-3)">
      <path id="Fill_47" data-name="Fill 47" d="M16.358,26.259a1.028,1.028,0,0,0-.721-.125,4.446,4.446,0,0,1-2.05-.207.3.3,0,0,1-.181-.112.912.912,0,0,0-.355-.3.284.284,0,0,1-.167-.291.572.572,0,0,0-.193-.479.5.5,0,0,1-.167-.563.748.748,0,0,0-.049-.527,14.763,14.763,0,0,0-.943-1.813,2.419,2.419,0,0,1-.357-1.345.393.393,0,0,1,.1-.246,1.127,1.127,0,0,0,.269-.861,3.7,3.7,0,0,0-.471-1.319,5.445,5.445,0,0,1-.511-1.826c-.09-.927-.162-1.856-.231-2.785a2.073,2.073,0,0,0-.324-1.075.247.247,0,0,1-.022-.224.588.588,0,0,0-.042-.463.34.34,0,0,1-.047-.16,3.849,3.849,0,0,1,.137-.819c.029-.106.081-.145.175-.048a1.359,1.359,0,0,1,.483.842,2.22,2.22,0,0,0,.433.965,1.436,1.436,0,0,1,.2.494c.029.146.091.251.268.225.086-.013.124.081.192.089a.668.668,0,0,1,.41.116.021.021,0,0,0,.018,0c.136-.058.24-.086.321.1.039.09.176.04.254-.031a.325.325,0,0,0,.1-.245c0-.26.1-.53-.084-.777a.907.907,0,0,1-.09-.273,2.125,2.125,0,0,0-.464-.862c-.272-.289-.674-.8-.923-1.108a11.027,11.027,0,0,1-1-1.307,3.991,3.991,0,0,1-.386-.942A9.975,9.975,0,0,1,9.735,5.4a12.012,12.012,0,0,0-.091-1.51,2.226,2.226,0,0,0-.18-.625A3.618,3.618,0,0,1,9.154,1.9,1.7,1.7,0,0,0,8.688.714.184.184,0,0,1,8.629.5l0-.005A.374.374,0,0,0,8.275,0H6.349a.814.814,0,0,0-.8.593l0,.009A.807.807,0,0,1,5.4.881a3.039,3.039,0,0,0-.72,1.251c-.03.122-.136.162-.239.2-.341.134-.382.212-.3.556a.562.562,0,0,1-.073.467.449.449,0,0,0,.009.631c.149.172.216.413.424.552.047.031.015.088.007.135-.07.409-.148.817-.205,1.228-.078.554-.137,1.11-.21,1.665-.117.883-.213,1.768-.3,2.654-.026.269-.036.54-.055.81-.025.354-.051.709-.08,1.063-.036.444-.038.444.417.518a1.53,1.53,0,0,1,.162.028c.186.051.43.019.543.173a1.987,1.987,0,0,1,.415.874.268.268,0,0,1-.088.243c-.047.047-.1.089-.143.139a.169.169,0,0,0-.028.23.149.149,0,0,0,.212.029.42.42,0,0,1,.071-.023c-.012.073-.077.083-.109.123-.057.074-.065.173.011.206.157.069.069.144.033.225a5.246,5.246,0,0,0-.477,2.4.8.8,0,0,1-.061.353,7.553,7.553,0,0,0-.284.857.888.888,0,0,1-.15.278A13.8,13.8,0,0,0,2.792,20.8a15.973,15.973,0,0,1-1.116,1.634c-.167.219-.313.453-.481.67a1.173,1.173,0,0,0-.247.865,1.586,1.586,0,0,1-.207.885q-.2.4-.361.813A2.58,2.58,0,0,0,.2,26.3a1.241,1.241,0,0,1-.156.511.282.282,0,0,0,.082.379,3.777,3.777,0,0,0,.969.454,11.846,11.846,0,0,1,1.329.571,2.322,2.322,0,0,0,.711.181A6.286,6.286,0,0,0,4.9,28.42c.348-.054.449-.335.238-.622a.9.9,0,0,0-.542-.339,2.378,2.378,0,0,1-1.4-.973c-.139-.194-.154-.447-.278-.653a.2.2,0,0,1,.031-.207A2.279,2.279,0,0,0,3.21,25.2a.162.162,0,0,1,.1-.069,1.139,1.139,0,0,0,.653-.522A14.089,14.089,0,0,0,5.6,21.468a.263.263,0,0,1,.151-.162c.067-.027.132-.062.2-.094a1.472,1.472,0,0,0,.778-.815,22.245,22.245,0,0,0,.881-2.39c.108.226.2.423.3.62a5.418,5.418,0,0,0,.445.705,1.286,1.286,0,0,1,.291.761,1.029,1.029,0,0,0,.224.656.207.207,0,0,1,.041.185,1.039,1.039,0,0,0,.025.589c.117.346.2.705.292,1.059a9.134,9.134,0,0,0,.441,1.3,1.117,1.117,0,0,1,.1.527,2.071,2.071,0,0,0,.222,1.077,4.856,4.856,0,0,0,.7,1.15,1,1,0,0,1,.186.342.7.7,0,0,0,.2.366c.088.074.069.187.084.286.074.485.1.508.585.47a13.59,13.59,0,0,0,4.426-1.165c.067-.029.132-.063.2-.1.291-.16.287-.4,0-.578" transform="translate(0 0)" fill="#29235c"/>
    </g>
  </g>
</svg>
